<svg xmlns="http://www.w3.org/2000/svg" width="336.728" height="336.728" viewBox="0 0 336.728 336.728">
  <g id="Group_40" data-name="Group 40" transform="translate(-784.538 -308.252)">
    <path id="Path_9" data-name="Path 9" d="M3081.735,5493.2c.636-.672,1.259-1.3,1.85-1.955q42.65-47.3,85.294-94.607c.3-.336.614-.663.921-.994,3.22-3.476,4.373-3.553,7.808-.453,1.677,1.513,3.314,3.069,4.963,4.612,2.375,2.221,2.454,3.542.286,5.937q-10.187,11.253-20.394,22.483-37.291,41.186-74.576,82.378c-4.31,4.759-7.849,4.785-12.309.233q-18.784-19.171-37.614-38.3-7.79-7.931-15.558-15.877c-2.532-2.6-2.55-3.794-.064-6.4,1.683-1.766,3.4-3.507,5.179-5.173,2.524-2.361,4.173-2.324,6.754.222,3.409,3.363,6.735,6.812,10.1,10.223q18.18,18.435,36.365,36.866A12.776,12.776,0,0,0,3081.735,5493.2Z" transform="translate(-2149.554 -4979.379)" fill="#4fb9c7"/>
    <path id="Path_10" data-name="Path 10" d="M3102.454,5287.631c-92.834,0-168.362,75.527-168.362,168.363s75.528,168.365,168.362,168.365,168.366-75.528,168.366-168.365S3195.292,5287.631,3102.454,5287.631Zm159.694,168.363c0,88.054-71.639,159.691-159.694,159.691s-159.689-71.637-159.689-159.691,71.636-159.689,159.689-159.689S3262.148,5367.941,3262.148,5455.994Z" transform="translate(-2149.554 -4979.379)" fill="#4fb9c7"/>
  </g>
</svg>
