<svg xmlns="http://www.w3.org/2000/svg" width="83.414" height="83.414" viewBox="0 0 83.414 83.414"><g transform="translate(-1194.548 -5026.276)"><circle cx="41.707" cy="41.707" r="41.707" transform="translate(1194.548 5026.276)" fill="#4fb9c7"/><path d="M1241.493,5159.68c.647-.166,1.2-.293,1.744-.447a18.646,18.646,0,0,0,7.342-3.787,11.525,11.525,0,0,0,4.02-7.094c.084-.537.1-1.084.138-1.626,0-.032-.028-.065-.042-.093-.452.483-.872.989-1.351,1.434a10.757,10.757,0,0,1-6.249,2.784,2.6,2.6,0,0,1-1.931-.329,1.973,1.973,0,0,1-.909-1.667q-.009-9.661,0-19.321a2.117,2.117,0,0,1,2.432-2.078,11.689,11.689,0,0,1,4.535,1.307,10.223,10.223,0,0,1,3.461,3.026.463.463,0,0,0,.048-.126c.163-4.311-.372-8.462-2.844-12.154a16.537,16.537,0,0,0-8.3-6.4,19.312,19.312,0,0,0-8.411-1.133,17.9,17.9,0,0,0-11.887,5.467,16.28,16.28,0,0,0-4.2,8.667,31,31,0,0,0-.292,5.5,1.443,1.443,0,0,0,.06.233c.1-.155.154-.25.222-.335a10.5,10.5,0,0,1,6.826-3.912,5.861,5.861,0,0,1,1.584-.115,2.115,2.115,0,0,1,1.818,2.231q0,9.336,0,18.673a4.323,4.323,0,0,1-.05.719,2.072,2.072,0,0,1-2.272,1.8,10.77,10.77,0,0,1-8.429-4.78,11.284,11.284,0,0,1-1.955-5.842c-.087-1.711-.066-3.427-.076-5.14-.011-1.982-.033-3.965.006-5.946a21.012,21.012,0,0,1,1.819-8.487,18.161,18.161,0,0,1,8.876-8.948,21.536,21.536,0,0,1,9.8-2.132,21.155,21.155,0,0,1,11.748,3.511,17.9,17.9,0,0,1,7.809,11.8,23.891,23.891,0,0,1,.458,4.415q.073,8.706.009,17.415a13.288,13.288,0,0,1-4.661,10.163,20.356,20.356,0,0,1-8.365,4.343,27.066,27.066,0,0,1-6.533.917,4.924,4.924,0,1,1,4.159-2.858C1241.609,5159.409,1241.576,5159.489,1241.493,5159.68Zm-14.5-11.044V5129.82a1.08,1.08,0,0,0-.18-.019c-.19.022-.379.043-.566.076a8.374,8.374,0,0,0-5.314,3.068,10.224,10.224,0,0,0-.526,11.793A8.672,8.672,0,0,0,1226.994,5148.636Zm19.6-.012c.118-.01.192-.015.265-.025s.149-.025.224-.036a8.376,8.376,0,0,0,5.652-3.255,9.842,9.842,0,0,0,1.8-8.207,8.565,8.565,0,0,0-6.045-6.943c-.6-.194-1.24-.284-1.893-.428Zm-6.6,8.641a2.841,2.841,0,0,0-5.682-.015,2.841,2.841,0,1,0,5.682.015Z" transform="translate(0 -68.161)" fill="#fff" fill-rule="evenodd"/></g></svg>