<svg xmlns="http://www.w3.org/2000/svg" width="106.226" height="106.227" viewBox="0 0 106.226 106.227"><g transform="translate(-1211.369 -3745.804)"><g transform="translate(0 -68.161)"><path d="M1264.481,3920.192a53.113,53.113,0,1,1,53.114-53.114A53.173,53.173,0,0,1,1264.481,3920.192Z" fill="#4fb9c7"/><path d="M1264.14,3872.657c.987-1.892,1.927-3.69,2.865-5.489q2.648-5.079,5.3-10.159c.39-.747.642-.825,1.38-.436.328.173.655.349.982.522.56.3.647.527.36,1.086-.986,1.921-1.971,3.842-2.975,5.754q-2.7,5.134-5.42,10.257a6.035,6.035,0,0,1-.619.978,2.237,2.237,0,0,1-3.505.176,10.864,10.864,0,0,1-1.218-1.678q-2.451-3.829-4.874-7.677c-.3-.473-.264-.693.2-1.013.358-.247.735-.467,1.108-.691.59-.353.875-.3,1.248.279.691,1.069,1.368,2.149,2.052,3.223q1.389,2.184,2.78,4.366C1263.89,3872.3,1263.991,3872.439,1264.14,3872.657Z" fill="#fff"/><path d="M1264.482,3894.559a27.481,27.481,0,1,1,27.481-27.481A27.512,27.512,0,0,1,1264.482,3894.559Zm0-52.127a24.647,24.647,0,1,0,24.647,24.646A24.674,24.674,0,0,0,1264.482,3842.432Z" fill="#fff"/></g></g></svg>