<svg xmlns="http://www.w3.org/2000/svg" width="114.823" height="106.11" viewBox="0 0 114.823 106.11"><g transform="translate(-1263.048 -3753.992)"><path d="M1266.151,3785.607H1374.14a3.1,3.1,0,0,0,1.337-5.905l-53.181-25.413a3.154,3.154,0,0,0-2.643-.014l-54.807,25.412a3.121,3.121,0,0,0-1.726,3.484A3.084,3.084,0,0,0,1266.151,3785.607Zm14.073-6.208,40.715-18.878,39.506,18.878Z" fill="#fff"/><path d="M1374.767,3853.894H1266.779a3.1,3.1,0,0,0,0,6.208h107.988a3.1,3.1,0,0,0,0-6.208Z" fill="#fff"/><path d="M1273.593,3845.9a3.107,3.107,0,0,0,3.1,3.1h88.153a3.1,3.1,0,1,0,0-6.207H1276.7A3.107,3.107,0,0,0,1273.593,3845.9Z" fill="#fff"/><path d="M1279.188,3837.606a3.108,3.108,0,0,0,3.1-3.1v-41.476a3.1,3.1,0,0,0-6.208,0V3834.5A3.108,3.108,0,0,0,1279.188,3837.606Z" fill="#fff"/><path d="M1362.994,3834.5v-41.476a3.1,3.1,0,0,0-6.208,0V3834.5a3.1,3.1,0,0,0,6.208,0Z" fill="#fff"/><path d="M1346.854,3834.5v-41.476a3.1,3.1,0,0,0-6.208,0V3834.5a3.1,3.1,0,0,0,6.208,0Z" fill="#fff"/><path d="M1330.713,3834.5v-41.476a3.1,3.1,0,0,0-6.208,0V3834.5a3.1,3.1,0,0,0,6.208,0Z" fill="#fff"/><path d="M1314.573,3834.5v-41.476a3.1,3.1,0,0,0-6.208,0V3834.5a3.1,3.1,0,0,0,6.208,0Z" fill="#fff"/><path d="M1298.432,3834.5v-41.476a3.1,3.1,0,0,0-6.208,0V3834.5a3.1,3.1,0,0,0,6.208,0Z" fill="#fff"/></g></svg>