<svg xmlns="http://www.w3.org/2000/svg" width="106.227" height="106.227" viewBox="0 0 106.227 106.227"><g transform="translate(-726.658 -3767.373)"><path d="M779.771,3941.761a53.114,53.114,0,1,1,53.114-53.114A53.174,53.174,0,0,1,779.771,3941.761Z" transform="translate(0 -68.161)" fill="#4fb9c7"/><g transform="translate(0 -68.161)"><path d="M789.275,3894.6c-1.065-.108-2.13-.219-3.2-.316a.473.473,0,0,0-.336.1q-4.938,4.937-9.864,9.887c-2.453,2.458-4.877,4.944-7.375,7.355a6.1,6.1,0,0,1-6.744,1.354,10.023,10.023,0,0,1-6.59-7.395,5.946,5.946,0,0,1,1.772-5.878q4.56-4.53,9.1-9.079,4-4,8.009-8a.5.5,0,0,0,.168-.523,15.574,15.574,0,0,1,3.338-13.468,14.551,14.551,0,0,1,8.99-4.908,15.939,15.939,0,0,1,10.376,1.783,1.788,1.788,0,0,1,1.066,1.585,1.825,1.825,0,0,1-.987,1.672c-2.953,1.781-5.9,3.577-8.85,5.358a.354.354,0,0,0-.182.478,19.545,19.545,0,0,0,3.412,6.709c.392.52.846.992,1.26,1.495.129.154.223.156.4.056q4.391-2.5,8.789-4.985a1.778,1.778,0,0,1,2.728,1.619,15.652,15.652,0,0,1-1.947,7.838,13.785,13.785,0,0,1-8.062,6.412A19.045,19.045,0,0,1,789.275,3894.6Zm4.947-27.371a13.082,13.082,0,0,0-4.412-.989,13.52,13.52,0,0,0-4.995.713,12.139,12.139,0,0,0-8.228,11.374,18.275,18.275,0,0,0,.653,4.623.516.516,0,0,1-.164.575q-2.149,2.127-4.287,4.268-3.512,3.509-7.023,7.02-3.473,3.467-6.948,6.926a3.377,3.377,0,0,0-.94,3.4,7.282,7.282,0,0,0,4.6,5.181,3.768,3.768,0,0,0,4.38-.935c.941-.959,1.905-1.9,2.856-2.846q7.387-7.383,14.765-14.775a1.06,1.06,0,0,1,1.124-.324,15.966,15.966,0,0,0,7.3-.032,11.7,11.7,0,0,0,5.633-3.117,11.028,11.028,0,0,0,2.892-5.285c.145-.6.224-1.209.345-1.88-.145.07-.217.1-.284.137q-3.91,2.216-7.819,4.433a1.714,1.714,0,0,1-2.181-.235,20.024,20.024,0,0,1-3.45-4.192,20.23,20.23,0,0,1-2.892-6.819,1.95,1.95,0,0,1,1.028-2.351q3.209-1.932,6.41-3.873C793.114,3867.907,793.642,3867.585,794.222,3867.232Z" fill="#fff" fill-rule="evenodd"/><path d="M763.575,3903.155a1.782,1.782,0,0,1,1.781,1.776,1.747,1.747,0,0,1-1.8,1.709,1.662,1.662,0,0,1-1.7-1.683A1.711,1.711,0,0,1,763.575,3903.155Z" fill="#fff" fill-rule="evenodd"/></g></g></svg>