<svg xmlns="http://www.w3.org/2000/svg" xmlns:xlink="http://www.w3.org/1999/xlink" width="106.226" height="106.227" viewBox="0 0 106.226 106.227"><defs><clipPath id="a"><rect width="106.226" height="106.227" fill="none"/></clipPath></defs><g clip-path="url(#a)"><g transform="translate(-239.669 -3767.788)"><path d="M292.781,3942.176a53.114,53.114,0,1,1,53.114-53.114A53.173,53.173,0,0,1,292.781,3942.176Z" transform="translate(0 -68.161)" fill="#4fb9c7"/><path d="M274.861,3891.849c-.513-.283-.993-.546-1.471-.814a2.672,2.672,0,0,1-1.115-3.714c.679-1.33,1.341-2.67,2.033-3.993a.809.809,0,0,0,.012-.815c-.672-1.352-1.331-2.711-1.99-4.069a2.684,2.684,0,0,1,1.222-3.759c1.353-.711,2.7-1.418,4.065-2.11a.766.766,0,0,0,.462-.614c.26-1.484.561-2.962.822-4.444a2.648,2.648,0,0,1,3.235-2.356c1.524.231,3.047.463,4.575.665a.817.817,0,0,0,.585-.21c1.15-1.079,2.263-2.2,3.421-3.265a2.611,2.611,0,0,1,3.83.089c1.132,1.1,2.263,2.194,3.414,3.275a.764.764,0,0,0,.541.158c1.594-.189,3.182-.44,4.778-.6a2.683,2.683,0,0,1,3.022,2.337c.247,1.5.459,3.012.726,4.512a.993.993,0,0,0,.432.619c1.328.752,2.675,1.47,4.022,2.191a2.683,2.683,0,0,1,1.216,3.758q-1.006,2.03-2.049,4.038a.75.75,0,0,0,0,.768c.686,1.381,1.356,2.77,2.022,4.16a2.688,2.688,0,0,1-1.245,3.677c-.387.2-.77.409-1.208.643.492.572.953,1.112,1.419,1.646q4.017,4.62,8.034,9.236a2.726,2.726,0,0,1,.441,3.129,2.558,2.558,0,0,1-2.6,1.532c-2.159-.057-4.321-.108-6.48-.2-.423-.019-.549.139-.655.5-.688,2.366-1.4,4.725-2.092,7.088a2.564,2.564,0,0,1-2.244,1.956,2.6,2.6,0,0,1-2.788-1.369q-3.583-6.288-7.153-12.583c-.111-.194-.229-.387-.373-.631-.44.419-.849.8-1.255,1.2a2.817,2.817,0,0,1-4.3-.095c-.3-.315-.608-.618-.956-.967l-1.568,2.733q-2.949,5.133-5.894,10.27a2.739,2.739,0,0,1-2.806,1.452,2.627,2.627,0,0,1-2.3-2.074c-.675-2.335-1.355-4.668-2.009-7.009-.1-.366-.246-.48-.629-.466-2.159.083-4.32.132-6.48.2a2.6,2.6,0,0,1-2.661-1.513,2.721,2.721,0,0,1,.5-3.159q4.581-5.292,9.155-10.585C274.624,3892.143,274.722,3892.018,274.861,3891.849Zm.179-14.619c.61,1.255,1.192,2.45,1.772,3.645.12.25.232.5.359.746a2.668,2.668,0,0,1,.014,2.564c-.738,1.46-1.46,2.923-2.2,4.405.193.112.341.207.5.289q1.873.99,3.746,1.98a2.906,2.906,0,0,1,1.586,2.155c.253,1.454.492,2.91.706,4.369.047.318.142.429.455.38,1.25-.187,2.512-.314,3.752-.56a3.437,3.437,0,0,1,3.554,1.125c.424.491.918.923,1.372,1.388.553.566,1.1,1.141,1.67,1.735,1.2-1.162,2.356-2.237,3.463-3.352a2.867,2.867,0,0,1,2.555-.9c.947.13,1.892.287,2.838.427.662.1,1.327.192,2,.287.287-1.615.555-3.13.823-4.646a2.849,2.849,0,0,1,1.662-2.252c.354-.161.692-.357,1.037-.536,1.06-.555,2.122-1.108,3.2-1.673-.078-.184-.133-.336-.2-.478-.626-1.284-1.244-2.573-1.883-3.85a2.876,2.876,0,0,1,.027-2.793c.388-.733.744-1.48,1.116-2.222l1.016-2.045c-1.448-.768-2.834-1.515-4.229-2.237a2.8,2.8,0,0,1-1.585-2.14c-.085-.528-.181-1.053-.269-1.581q-.266-1.6-.531-3.2c-.114.007-.179.005-.242.013-1.574.21-3.147.435-4.725.634a2.62,2.62,0,0,1-2.3-.81c-1.014-1.031-2.042-2.049-3.067-3.071-.132-.133-.273-.26-.42-.4-.133.118-.232.2-.324.291-1.09,1.048-2.173,2.1-3.266,3.144a2.7,2.7,0,0,1-2.264.8c-.708-.088-1.409-.219-2.114-.327-.94-.143-1.879-.283-2.851-.429-.288,1.579-.581,3.106-.835,4.637a2.86,2.86,0,0,1-1.591,2.24C277.934,3875.7,276.516,3876.459,275.04,3877.23Zm42.133,27.309a1.327,1.327,0,0,0-.1-.19q-4.661-5.351-9.327-10.694c-.085-.1-.309-.2-.391-.152-.175.095-.393.266-.427.441-.318,1.57-.606,3.151-.893,4.728a2.6,2.6,0,0,1-2.986,2.213c-1.026-.143-2.043-.356-3.065-.538l-2.142-.379c2.611,4.588,5.15,9.055,7.752,13.626.111-.339.188-.559.255-.784.8-2.687,1.6-5.374,2.393-8.065.084-.277.178-.384.5-.377C311.527,3904.439,314.318,3904.484,317.173,3904.539Zm-37.861,8.92.124.025c2.524-4.453,5.048-8.907,7.6-13.408a1.921,1.921,0,0,0-.247-.009c-1.623.225-3.248.431-4.868.683a2.728,2.728,0,0,1-3.209-2.2c-.282-1.578-.515-3.168-.784-4.749a.618.618,0,0,0-.251-.418c-.08-.04-.3.1-.4.216-.428.468-.832.956-1.248,1.434q-3.972,4.589-7.946,9.179c-.073.085-.13.185-.227.325,2.87-.055,5.663-.1,8.456-.164a.4.4,0,0,1,.469.356c.237.877.505,1.745.758,2.615Q278.426,3910.4,279.312,3913.459Z" transform="translate(0 -68.161)" fill="#fff" fill-rule="evenodd"/></g></g></svg>