<svg xmlns="http://www.w3.org/2000/svg" width="106.226" height="106.227" viewBox="0 0 106.226 106.227"><g transform="translate(-715.044 -3325.047)"><path d="M768.156,3499.435a53.114,53.114,0,1,1,53.114-53.113A53.173,53.173,0,0,1,768.156,3499.435Z" transform="translate(0 -68.161)" fill="#4fb9c7"/><g transform="translate(0 -68.161)"><path d="M792.314,3435.208c-.067,7.55-1.016,14.07-3.5,20.313a32.7,32.7,0,0,1-9.115,13.148,27.475,27.475,0,0,1-10.424,5.536,2.576,2.576,0,0,1-1.363-.06,28.4,28.4,0,0,1-17.057-13.912,43.042,43.042,0,0,1-4.674-13.145,57.515,57.515,0,0,1-1.02-12.028c.029-1.628.132-3.256.273-4.878a2.586,2.586,0,0,1,2.714-2.462,26.522,26.522,0,0,0,11.622-3.445,28.223,28.223,0,0,0,6.9-5.267,2.624,2.624,0,0,1,4.043,0,28.689,28.689,0,0,0,15.062,8.287,24.088,24.088,0,0,0,3.6.419,2.7,2.7,0,0,1,2.628,2.425C792.15,3432.114,792.247,3434.095,792.314,3435.208Zm-44.067-4.54c-.07,1.267-.175,2.535-.2,3.8a55.187,55.187,0,0,0,1.139,12.787,38.036,38.036,0,0,0,5.6,13.739,25.353,25.353,0,0,0,13.475,10.2,1.3,1.3,0,0,0,.739.035,24.925,24.925,0,0,0,11.766-7.817,34.384,34.384,0,0,0,6.707-13.168,54.342,54.342,0,0,0,1.824-16.952c-.034-.881-.117-1.759-.177-2.627a31.806,31.806,0,0,1-20.426-9.478A31.711,31.711,0,0,1,748.247,3430.668Z" fill="#fff"/><path d="M768.393,3452.765c.987-1.892,1.927-3.69,2.865-5.49q2.648-5.079,5.295-10.159c.39-.747.642-.824,1.38-.435.328.173.654.348.982.522.559.3.647.526.36,1.086-.986,1.921-1.971,3.842-2.976,5.753q-2.7,5.135-5.42,10.257a5.953,5.953,0,0,1-.619.978,2.237,2.237,0,0,1-3.5.177,10.873,10.873,0,0,1-1.218-1.679c-1.634-2.553-3.252-5.116-4.875-7.677-.3-.473-.264-.693.2-1.013.358-.247.734-.467,1.108-.69.59-.354.875-.3,1.247.278.692,1.07,1.369,2.149,2.052,3.223q1.389,2.184,2.781,4.366C768.143,3452.407,768.244,3452.546,768.393,3452.765Z" fill="#fff"/></g></g></svg>