<svg xmlns="http://www.w3.org/2000/svg" width="106.227" height="106.227" viewBox="0 0 106.227 106.227"><g transform="translate(-230.143 -3325.047)"><path d="M283.256,3499.435a53.114,53.114,0,1,1,53.114-53.113A53.173,53.173,0,0,1,283.256,3499.435Z" transform="translate(0 -68.161)" fill="#4fb9c7"/><g transform="translate(0 -68.161)"><path d="M258.957,3463.294a12.9,12.9,0,0,1,.726-1.719c.761-1.273,1.575-2.513,2.4-3.748a.774.774,0,0,0,.031-.861c-.482-1.077-.948-2.164-1.355-3.27a.729.729,0,0,0-.61-.537q-2.25-.474-4.5-.966a2.942,2.942,0,0,1-2.364-2.7,27.385,27.385,0,0,1,0-6.392,2.91,2.91,0,0,1,2.308-2.634c1.511-.338,3.025-.669,4.542-.977a.718.718,0,0,0,.619-.532c.42-1.12.88-2.227,1.359-3.323a.729.729,0,0,0-.033-.813c-.848-1.28-1.666-2.58-2.49-3.877a2.96,2.96,0,0,1,.162-3.548,27.892,27.892,0,0,1,4.481-4.495,2.957,2.957,0,0,1,3.766-.172c1.264.81,2.533,1.611,3.789,2.431a.649.649,0,0,0,.714.05c1.146-.5,2.316-.944,3.462-1.442a.831.831,0,0,0,.429-.5c.35-1.51.656-3.029.99-4.542a2.932,2.932,0,0,1,2.739-2.382,27.779,27.779,0,0,1,6.287,0,2.944,2.944,0,0,1,2.72,2.407c.32,1.515.615,3.037.953,4.549a.811.811,0,0,0,.434.476c1.147.494,2.315.945,3.464,1.435a.642.642,0,0,0,.719-.037c1.216-.817,2.453-1.6,3.677-2.408a3.03,3.03,0,0,1,3.988.221c1.459,1.355,2.87,2.769,4.225,4.228a2.788,2.788,0,0,1,.252,3.733c-.821,1.3-1.662,2.584-2.47,3.89a.841.841,0,0,0-.079.654c.462,1.161.979,2.3,1.443,3.462a.745.745,0,0,0,.621.535c1.5.3,3,.634,4.5.958a2.984,2.984,0,0,1,2.356,2.657,25.72,25.72,0,0,1,0,6.442,2.981,2.981,0,0,1-2.314,2.639q-2.215.5-4.44.955a.914.914,0,0,0-.764.656c-.428,1.118-.941,2.2-1.387,3.316a.833.833,0,0,0,.05.651c.835,1.351,1.705,2.681,2.556,4.023a2.9,2.9,0,0,1-.244,3.578,31.853,31.853,0,0,1-4.418,4.41,2.984,2.984,0,0,1-3.5.251q-1.99-1.263-3.95-2.576a.781.781,0,0,0-.867-.045c-1.126.5-2.278.947-3.407,1.444a.829.829,0,0,0-.434.483c-.34,1.528-.629,3.069-.964,4.6a2.966,2.966,0,0,1-2.665,2.346,26.19,26.19,0,0,1-6.441-.005,2.98,2.98,0,0,1-2.639-2.376c-.32-1.516-.634-3.034-.983-4.544a.859.859,0,0,0-.436-.5q-1.764-.785-3.556-1.5a.776.776,0,0,0-.611.069c-1.319.819-2.623,1.666-3.93,2.5a2.836,2.836,0,0,1-3.576-.146,28.381,28.381,0,0,1-4.491-4.483,2.826,2.826,0,0,1-.7-1.951Zm-2.487-14.2c1.62.335,3.186.667,4.757.981a3.125,3.125,0,0,1,2.443,2.165,38.7,38.7,0,0,0,1.485,3.613,3.171,3.171,0,0,1-.2,3.393c-.8,1.228-1.564,2.48-2.367,3.707a.489.489,0,0,0,.043.728q1.637,1.62,3.257,3.255a.486.486,0,0,0,.728.046c1.244-.838,2.509-1.648,3.767-2.464a3.012,3.012,0,0,1,2.929-.278c1.418.58,2.831,1.169,4.246,1.755a2.837,2.837,0,0,1,1.828,2.1c.326,1.5.687,2.987.982,4.489a.643.643,0,0,0,.738.612c1.446,0,2.891-.008,4.337,0a.617.617,0,0,0,.7-.586c.268-1.4.589-2.791.85-4.194a3.159,3.159,0,0,1,2.2-2.53c1.271-.469,2.532-.975,3.761-1.545a3.066,3.066,0,0,1,3.117.161c1.24.782,2.475,1.573,3.683,2.4a.646.646,0,0,0,.988-.08q1.531-1.574,3.1-3.115a.514.514,0,0,0,.059-.773c-.846-1.26-1.679-2.529-2.485-3.817a3.014,3.014,0,0,1-.2-2.975q.859-1.956,1.63-3.954a3.115,3.115,0,0,1,2.427-2.116q2.124-.425,4.244-.864c.287-.059.6-.1.592-.522-.009-1.569,0-3.14-.005-4.708,0-.3-.123-.446-.462-.515-1.519-.3-3.029-.658-4.543-.988a3.01,3.01,0,0,1-2.252-2.026c-.5-1.3-1.019-2.588-1.582-3.86a3.135,3.135,0,0,1,.224-3.21c.817-1.238,1.61-2.491,2.436-3.724a.46.46,0,0,0-.041-.687c-1.1-1.1-2.2-2.188-3.3-3.292-.237-.241-.42-.2-.682-.031q-1.875,1.243-3.774,2.452a3.068,3.068,0,0,1-3.024.263c-1.328-.568-2.659-1.129-4.005-1.653a3.119,3.119,0,0,1-2.1-2.439c-.275-1.417-.57-2.83-.869-4.243-.049-.236-.037-.544-.432-.543-1.62,0-3.242-.006-4.862-.005-.257,0-.377.125-.435.411-.316,1.535-.672,3.063-1,4.594a3,3,0,0,1-2.04,2.237c-1.281.5-2.556,1.012-3.811,1.568a3.122,3.122,0,0,1-3.169-.178c-1.259-.817-2.524-1.625-3.774-2.454-.254-.169-.437-.241-.681.007q-1.673,1.7-3.364,3.371c-.214.213-.14.382,0,.6.839,1.308,1.656,2.631,2.5,3.936a2.984,2.984,0,0,1,.181,3.018c-.561,1.271-1.073,2.565-1.587,3.857a2.98,2.98,0,0,1-2.2,2.012c-1.53.336-3.055.7-4.591,1.007a.492.492,0,0,0-.464.516A23.438,23.438,0,0,0,256.47,3449.095Z" fill="#fff" fill-rule="evenodd"/><path d="M283.211,3458.233a11.908,11.908,0,1,1,11.954-11.909A11.938,11.938,0,0,1,283.211,3458.233ZM274.6,3446.3a8.675,8.675,0,1,0,8.6-8.64A8.632,8.632,0,0,0,274.6,3446.3Z" fill="#fff" fill-rule="evenodd"/></g></g></svg>