<svg xmlns="http://www.w3.org/2000/svg" width="129.708" height="128.538" viewBox="0 0 129.708 128.538"><path d="M589.785,3813.132c-1.191-.655-2.3-1.268-3.416-1.889a6.206,6.206,0,0,1-2.59-8.626c1.577-3.09,3.114-6.2,4.722-9.275a1.871,1.871,0,0,0,.027-1.892c-1.561-3.14-3.091-6.3-4.62-9.45a6.232,6.232,0,0,1,2.837-8.731q4.713-2.48,9.442-4.9a1.771,1.771,0,0,0,1.072-1.426c.605-3.447,1.3-6.879,1.91-10.322.706-4,3.525-6.077,7.512-5.472,3.541.538,7.078,1.077,10.627,1.546a1.9,1.9,0,0,0,1.358-.489c2.671-2.505,5.256-5.1,7.947-7.583,2.761-2.555,6.173-2.423,8.894.207,2.629,2.546,5.257,5.1,7.929,7.606a1.785,1.785,0,0,0,1.257.369c3.7-.44,7.392-1.023,11.1-1.394a6.23,6.23,0,0,1,7.018,5.427c.574,3.49,1.065,7,1.685,10.479a2.314,2.314,0,0,0,1,1.439c3.086,1.746,6.214,3.413,9.341,5.089a6.231,6.231,0,0,1,2.826,8.728q-2.34,4.711-4.759,9.378a1.742,1.742,0,0,0-.005,1.785c1.592,3.206,3.149,6.433,4.7,9.662a6.24,6.24,0,0,1-2.892,8.539c-.9.469-1.787.949-2.8,1.494,1.143,1.327,2.213,2.582,3.3,3.823q9.328,10.728,18.659,21.45a6.337,6.337,0,0,1,1.025,7.269,5.942,5.942,0,0,1-6.035,3.556c-5.014-.132-10.035-.25-15.051-.455-.982-.043-1.276.323-1.522,1.162-1.6,5.5-3.247,10.975-4.857,16.463a5.955,5.955,0,0,1-5.212,4.543,6.037,6.037,0,0,1-6.476-3.179q-8.324-14.606-16.614-29.227c-.256-.451-.531-.9-.865-1.464-1.021.972-1.972,1.867-2.916,2.776-3.137,3.017-7.016,2.928-9.982-.221-.686-.733-1.413-1.437-2.22-2.248l-3.642,6.349q-6.849,11.921-13.689,23.853a6.36,6.36,0,0,1-6.518,3.372c-2.61-.212-4.543-2.017-5.35-4.816-1.569-5.424-3.148-10.844-4.667-16.279-.237-.852-.571-1.116-1.46-1.084-5.015.194-10.035.308-15.052.458-2.783.086-4.961-.936-6.18-3.514a6.321,6.321,0,0,1,1.157-7.337q10.64-12.289,21.264-24.583C589.234,3813.816,589.463,3813.526,589.785,3813.132Zm.416-33.954c1.417,2.915,2.768,5.691,4.116,8.467.278.58.539,1.166.834,1.733a6.188,6.188,0,0,1,.031,5.954c-1.713,3.391-3.39,6.791-5.1,10.232.447.259.792.48,1.158.671,2.9,1.533,5.8,3.058,8.7,4.6a6.755,6.755,0,0,1,3.684,5.005c.586,3.377,1.142,6.758,1.638,10.147.11.737.331.995,1.057.881,2.9-.433,5.835-.729,8.716-1.3,3.291-.647,6.021.027,8.253,2.614.986,1.141,2.131,2.143,3.188,3.222,1.284,1.316,2.554,2.651,3.878,4.031,2.795-2.7,5.471-5.2,8.044-7.786a6.657,6.657,0,0,1,5.933-2.1c2.2.3,4.4.667,6.592.992,1.537.231,3.081.445,4.643.665.665-3.75,1.289-7.268,1.91-10.789a6.616,6.616,0,0,1,3.86-5.23c.822-.376,1.608-.831,2.409-1.246,2.462-1.289,4.928-2.573,7.435-3.887-.182-.425-.309-.779-.469-1.109-1.455-2.983-2.889-5.975-4.374-8.942a6.679,6.679,0,0,1,.064-6.487c.9-1.7,1.728-3.437,2.591-5.16.779-1.567,1.56-3.136,2.359-4.75-3.361-1.783-6.581-3.519-9.821-5.2a6.494,6.494,0,0,1-3.682-4.968c-.2-1.228-.419-2.446-.624-3.673q-.618-3.71-1.235-7.442c-.263.016-.414.011-.56.03-3.657.489-7.309,1.011-10.975,1.473a6.082,6.082,0,0,1-5.341-1.881c-2.357-2.4-4.745-4.759-7.124-7.134-.308-.308-.633-.6-.975-.925-.311.276-.539.469-.753.677-2.532,2.434-5.047,4.882-7.587,7.3a6.269,6.269,0,0,1-5.257,1.863c-1.645-.2-3.272-.508-4.91-.758-2.183-.333-4.364-.658-6.623-1-.668,3.669-1.348,7.214-1.938,10.771a6.64,6.64,0,0,1-3.7,5.2C596.922,3775.633,593.629,3777.389,590.2,3779.178Zm97.857,63.429a3.15,3.15,0,0,0-.236-.441Q677,3829.74,666.159,3817.327c-.2-.23-.717-.458-.908-.353-.408.221-.913.619-.993,1.025-.738,3.648-1.407,7.318-2.072,10.982a6.044,6.044,0,0,1-6.936,5.14c-2.384-.333-4.746-.827-7.118-1.25l-4.976-.882c6.064,10.657,11.962,21.032,18.005,31.65.257-.788.437-1.3.592-1.822,1.858-6.241,3.725-12.481,5.559-18.731.193-.645.412-.893,1.154-.877C674.944,3842.375,681.427,3842.48,688.058,3842.607Zm-87.934,20.717.287.058c5.863-10.343,11.725-20.688,17.646-31.14a4.312,4.312,0,0,0-.575-.023c-3.77.524-7.543,1-11.3,1.587a6.334,6.334,0,0,1-7.454-5.1c-.656-3.664-1.2-7.357-1.821-11.03a1.433,1.433,0,0,0-.583-.97c-.186-.094-.694.241-.931.5-.994,1.088-1.933,2.22-2.9,3.331q-9.225,10.657-18.454,21.319c-.17.2-.3.43-.527.755,6.665-.127,13.153-.239,19.64-.382.669-.016.917.209,1.088.829.551,2.035,1.172,4.051,1.762,6.073Q598.065,3856.225,600.124,3863.324Z" transform="translate(-565.877 -3742.778)" fill="#fff" fill-rule="evenodd"/></svg>