<svg xmlns="http://www.w3.org/2000/svg" width="106.227" height="106.227" viewBox="0 0 106.227 106.227"><g transform="translate(-1208.628 -3393.05)"><path d="M1261.741,3499.277a53.114,53.114,0,1,1,53.114-53.113A53.173,53.173,0,0,1,1261.741,3499.277Z" fill="#4fb9c7"/><path d="M1250.216,3434.03c0-.859,0-1.645,0-2.431a8.423,8.423,0,0,1,6.926-8.343,7.588,7.588,0,0,1,1.391-.111q11.6-.009,23.195,0a8.39,8.39,0,0,1,8.3,7.289,7.121,7.121,0,0,1,.052.957q0,7.2,0,14.4a8.355,8.355,0,0,1-5.9,7.811c-.293.087-.393.2-.391.508.015,2.012.009,4.026.007,6.039a2.157,2.157,0,0,1-1.346,2.124,2.121,2.121,0,0,1-2.466-.452q-3.539-3.3-7.079-6.589c-.1-.091-.2-.178-.334-.3-.072.446-.124.858-.208,1.262a7.707,7.707,0,0,1-7.5,6.106q-5.838,0-11.678,0a1.144,1.144,0,0,0-.852.32c-2.281,2.1-4.576,4.194-6.863,6.293a2.107,2.107,0,0,1-2.433.445,2.055,2.055,0,0,1-1.259-2.047c.006-1.625-.005-3.251.006-4.878a.476.476,0,0,0-.376-.54,7.563,7.563,0,0,1-5.2-6.391,7.676,7.676,0,0,1-.068-1.073q-.008-6.319,0-12.639a7.779,7.779,0,0,1,6.527-7.653,9.271,9.271,0,0,1,1.352-.092c1.894-.009,3.787,0,5.679,0Zm31.2,25.793v-.516c0-2.36,0-4.719,0-7.078,0-.273.027-.425.368-.461a7.97,7.97,0,0,0,1.4-.312,5.764,5.764,0,0,0,4.488-6.005c-.039-4.626-.009-9.251-.011-13.877a5.963,5.963,0,0,0-6.04-6.023q-11.337,0-22.675,0a8.774,8.774,0,0,0-1.584.151,5.95,5.95,0,0,0-4.667,5.448c-.041,1.424-.041,2.85-.04,4.276.005,3.505-.025,7.011.05,10.515a5.879,5.879,0,0,0,5.851,5.606q6.759,0,13.517-.007a1.082,1.082,0,0,1,.811.324q2.986,2.8,5.991,5.589C1279.681,3458.218,1280.5,3458.976,1281.412,3459.823Zm-37.2.477v6.458c.175-.148.286-.235.39-.331q3.405-3.144,6.8-6.3a.948.948,0,0,1,.707-.269q6.4.01,12.8,0a5.2,5.2,0,0,0,1.147-.128,5.123,5.123,0,0,0,3.914-4.35c.069-.44.1-.885.148-1.366h-.558c-3.56,0-7.118.007-10.676-.007a11.617,11.617,0,0,1-1.786-.15,8.426,8.426,0,0,1-6.876-8.007c-.014-2.959,0-5.917-.006-8.877v-.461c-.131-.01-.2-.02-.262-.02q-3.24,0-6.478,0a2.351,2.351,0,0,0-.436.043,5.265,5.265,0,0,0-4.457,5.262q-.055,6.615.035,13.232a4.872,4.872,0,0,0,2.623,4.291A8.685,8.685,0,0,0,1244.214,3460.3Z" fill="#fff" fill-rule="evenodd"/></g></svg>