<svg xmlns="http://www.w3.org/2000/svg" width="85.735" height="114.613" viewBox="0 0 85.735 114.613"><g transform="translate(-1327.756 -1914.05)"><path d="M1403.388,1929.139c-14.194-17.156-41.022-20.156-58.583-6.557a43.179,43.179,0,0,0-9.329,59.027q11.478,16.872,23.017,33.7l6.831,9.98c1.509,2.207,3.306,3.374,5.2,3.374h0c1.9,0,3.718-1.183,5.246-3.418l2.682-3.923c9-13.163,18.314-26.776,27.423-40.2,5.3-7.8,7.647-16.029,7.617-26.676v-.005C1413.369,1945.971,1409.686,1936.75,1403.388,1929.139Zm-2.429,47.727c-7.21,10.705-14.623,21.534-21.792,32.006q-4.246,6.2-8.49,12.413a2.049,2.049,0,0,1-.211.246l-15.93-23.249q-6.537-9.552-13.087-19.1c-8.221-11.981-9.567-24.457-4-37.08,5.423-12.288,15.05-19.467,28.615-21.338a35.582,35.582,0,0,1,26.57,7.041,36.362,36.362,0,0,1,14.111,24.248A34.824,34.824,0,0,1,1400.959,1976.866Z" fill="#4fb9c7"/><path d="M1370.619,1935.811h-.039a20.963,20.963,0,0,0-14.791,35.776,20.951,20.951,0,1,0,14.83-35.776Zm14.616,20.885a14.3,14.3,0,0,1-4.228,10.246,14.741,14.741,0,0,1-10.365,4.439h-.037a14.655,14.655,0,0,1-14.439-14.364,14.416,14.416,0,0,1,14.416-14.7h.114A14.578,14.578,0,0,1,1385.235,1956.7Z" fill="#4fb9c7"/></g></svg>