<svg xmlns="http://www.w3.org/2000/svg" width="500.782" height="159.266" viewBox="0 0 500.782 159.266"><g transform="translate(-718.951 -829.14)"><path d="M718.951,976.148c0-7.058,5.371-12.257,12.636-12.257A11.667,11.667,0,0,1,740.4,967.4l-1.618,1.618a9.554,9.554,0,0,0-7.128-2.858,9.987,9.987,0,1,0,0,19.97,9.454,9.454,0,0,0,7.128-2.892l1.618,1.618a11.721,11.721,0,0,1-8.849,3.547C724.322,988.406,718.951,983.206,718.951,976.148Z" fill="#fff"/><path d="M762.882,985.995v2.2H745.839V964.1h16.526v2.2H748.386v8.574h12.465v2.168H748.386v8.952Z" fill="#fff"/><path d="M785.329,988.2l-5.509-7.747a17.135,17.135,0,0,1-1.929.1h-6.473V988.2h-2.547V964.1h9.02c6.129,0,9.847,3.1,9.847,8.263a7.47,7.47,0,0,1-5.508,7.574l5.888,8.264Zm-.138-15.838c0-3.856-2.548-6.06-7.368-6.06h-6.4v12.085h6.4C782.643,978.386,785.191,976.148,785.191,972.361Z" fill="#fff"/><path d="M798.1,966.3h-8.469v-2.2h19.487v2.2h-8.469v21.9H798.1Z" fill="#fff"/><path d="M813.179,964.1h2.547v24.1h-2.547Z" fill="#fff"/><path d="M826.124,966.3v9.469h12.463v2.2H826.124V988.2h-2.549V964.1H840.1v2.2Z" fill="#fff"/><path d="M845.369,964.1h2.547v24.1h-2.547Z" fill="#fff"/><path d="M853.63,976.148c0-7.058,5.372-12.257,12.636-12.257a11.665,11.665,0,0,1,8.814,3.512l-1.618,1.618a9.551,9.551,0,0,0-7.126-2.858,9.987,9.987,0,1,0,0,19.97,9.451,9.451,0,0,0,7.126-2.892l1.618,1.618a11.719,11.719,0,0,1-8.848,3.547C859,988.406,853.63,983.206,853.63,976.148Z" fill="#fff"/><path d="M895.013,981.761H881.586l-2.893,6.438h-2.651l11.018-24.1h2.513l11.018,24.1h-2.685Zm-.929-2.067L888.3,966.749l-5.784,12.945Z" fill="#fff"/><path d="M902.1,976.148c0-7.058,5.373-12.257,12.636-12.257a11.667,11.667,0,0,1,8.815,3.512l-1.618,1.618a9.553,9.553,0,0,0-7.127-2.858,9.987,9.987,0,1,0,0,19.97,9.453,9.453,0,0,0,7.127-2.892l1.618,1.618a11.72,11.72,0,0,1-8.848,3.547C907.477,988.406,902.1,983.206,902.1,976.148Z" fill="#fff"/><path d="M928.993,964.1h2.548v24.1h-2.548Z" fill="#fff"/><path d="M937.255,976.148c0-7.024,5.371-12.257,12.671-12.257,7.23,0,12.636,5.2,12.636,12.257s-5.406,12.258-12.636,12.258C942.626,988.406,937.255,983.172,937.255,976.148Zm22.759,0a10.124,10.124,0,1,0-10.088,9.985A9.763,9.763,0,0,0,960.014,976.148Z" fill="#fff"/><path d="M988.417,964.1v24.1h-2.1l-15.495-19.557V988.2h-2.547V964.1h2.1L985.9,983.654V964.1Z" fill="#fff"/><path d="M1013.307,985.995v2.2H996.264V964.1h16.526v2.2H998.811v8.574h12.465v2.168H998.811v8.952Z" fill="#fff"/><path d="M1016.989,985.273l1-1.963a11.832,11.832,0,0,0,7.952,2.926c4.511,0,6.474-1.894,6.474-4.269,0-6.611-14.84-2.548-14.84-11.465,0-3.547,2.754-6.611,8.883-6.611a13.6,13.6,0,0,1,7.471,2.134l-.86,2.032a12.407,12.407,0,0,0-6.611-2c-4.407,0-6.369,1.962-6.369,4.372,0,6.611,14.839,2.617,14.839,11.4,0,3.546-2.823,6.577-8.987,6.577C1022.326,988.406,1018.779,987.131,1016.989,985.273Z" fill="#fff"/><path d="M1054.171,966.3h-8.47v-2.2h19.488v2.2h-8.47v21.9h-2.548Z" fill="#fff"/><path d="M1086.293,985.995v2.2H1069.25V964.1h16.526v2.2H1071.8v8.574h12.465v2.168H1071.8v8.952Zm-8.573-23.86h-2.411l4.718-4.27h3.271Z" fill="#fff"/><path d="M1090.009,976.148c0-7.058,5.371-12.257,12.636-12.257a11.669,11.669,0,0,1,8.815,3.512l-1.618,1.618a9.555,9.555,0,0,0-7.128-2.858,9.987,9.987,0,1,0,0,19.97,9.455,9.455,0,0,0,7.128-2.892l1.618,1.618a11.723,11.723,0,0,1-8.85,3.547C1095.38,988.406,1090.009,983.206,1090.009,976.148Z" fill="#fff"/><path d="M1137.04,964.1v24.1h-2.1l-15.495-19.557V988.2H1116.9V964.1h2.1l15.529,19.556V964.1Z" fill="#fff"/><path d="M1144.887,964.1h2.547v24.1h-2.547Z" fill="#fff"/><path d="M1153.148,976.148c0-7.058,5.373-12.257,12.636-12.257a11.668,11.668,0,0,1,8.815,3.512l-1.618,1.618a9.553,9.553,0,0,0-7.127-2.858,9.987,9.987,0,1,0,0,19.97,9.453,9.453,0,0,0,7.127-2.892l1.618,1.618a11.721,11.721,0,0,1-8.848,3.547C1158.521,988.406,1153.148,983.206,1153.148,976.148Z" fill="#fff"/><path d="M1194.532,981.761H1181.1l-2.893,6.438h-2.65l11.018-24.1h2.513l11.018,24.1h-2.686Zm-.929-2.067-5.784-12.945-5.785,12.945Z" fill="#fff"/><path d="M1201.8,985.273l1-1.963a11.834,11.834,0,0,0,7.953,2.926c4.511,0,6.473-1.894,6.473-4.269,0-6.611-14.839-2.548-14.839-11.465,0-3.547,2.754-6.611,8.883-6.611a13.6,13.6,0,0,1,7.471,2.134l-.861,2.032a12.4,12.4,0,0,0-6.61-2c-4.407,0-6.37,1.962-6.37,4.372,0,6.611,14.839,2.617,14.839,11.4,0,3.546-2.822,6.577-8.986,6.577C1207.133,988.406,1203.586,987.131,1201.8,985.273Z" fill="#fff"/><path d="M719.93,830.722h10.883v102.9H719.93Z" fill="#fff"/><path d="M848.406,830.722v102.9h-8.964l-66.153-83.5v83.5H762.411v-102.9h8.969l66.294,83.493V830.722Z" fill="#fff"/><path d="M978.549,830.722h23.808v102.9H978.549Z" fill="#fff"/><path d="M1051.761,850.124h-32.928v-19.4H1108.5v19.4h-32.928v83.5h-23.812Z" fill="#fff"/><path d="M1122.34,888.344V830.722h23.813v56.74c0,19.551,8.528,27.635,22.933,27.635,14.556,0,22.934-8.084,22.934-27.635v-56.74h23.514v57.622c0,30.282-17.34,47.039-46.594,47.039S1122.34,918.626,1122.34,888.344Z" fill="#fff"/><path d="M927.725,829.469c-2.428-.219-4.874-.329-7.308-.329-29.2,0-43.289,14.529-43.289,31.991,0,38.154,59.724,24.946,59.724,44.171,0,6.31-5.722,11.005-19.809,11.005-12.328,0-25.239-4.4-33.9-10.713l-8.073,17.9c9.1,7.044,25.534,11.886,41.823,11.886,29.348,0,43.581-14.672,43.581-31.842,0-37.715-59.723-24.654-59.723-43.583,0-6.456,5.429-11.739,19.517-11.739.332,0,.673.029,1.007.036a11.7,11.7,0,0,1,6.447-18.786Z" fill="#fff"/><circle cx="11.74" cy="11.74" r="11.74" transform="translate(930.394 829.322)" fill="#fff"/></g></svg>