<svg xmlns="http://www.w3.org/2000/svg" width="573.388" height="188.536" viewBox="0 0 573.388 188.536"><g transform="translate(-673.306 -424.354)"><path d="M674.782,426.179h12.559V544.92H674.782Z" fill="#fff"/><path d="M823.039,426.179V544.92H812.7l-76.338-96.352V544.92H723.8V426.179h10.349l76.5,96.349V426.179Z" fill="#fff"/><path d="M973.22,426.179h27.474V544.92H973.22Z" fill="#fff"/><path d="M1057.7,448.568h-38V426.179h103.474v22.389h-38V544.92H1057.7Z" fill="#fff"/><path d="M1139.151,492.673V426.179h27.479v65.476c0,22.561,9.841,31.89,26.464,31.89,16.8,0,26.465-9.329,26.465-31.89V426.179h27.135v66.494c0,34.945-20.01,54.281-53.769,54.281S1139.151,527.618,1139.151,492.673Z" fill="#fff"/><path d="M914.571,424.732c-2.8-.251-5.624-.378-8.434-.378-33.7,0-49.953,16.765-49.953,36.915,0,44.029,68.919,28.788,68.919,50.973,0,7.281-6.6,12.7-22.859,12.7-14.226,0-29.126-5.082-39.116-12.363l-9.316,20.66c10.5,8.128,29.466,13.715,48.263,13.715,33.866,0,50.291-16.931,50.291-36.744,0-43.522-68.919-28.45-68.919-50.294,0-7.45,6.265-13.547,22.522-13.547.384,0,.776.034,1.163.042a13.5,13.5,0,0,1,7.439-21.679Z" fill="#fff"/><circle cx="13.548" cy="13.548" r="13.548" transform="translate(917.651 424.563)" fill="#fff"/><path d="M685.855,580.135H673.306V576.87h28.875v3.265H689.632v32.451h-3.777Z" fill="#fff"/><path d="M733.447,609.32v3.266H708.194V576.87h24.489v3.265H711.968v12.7h18.468v3.216H711.968V609.32Z" fill="#fff"/><path d="M738.948,594.729c0-10.459,7.958-18.163,18.725-18.163,5.2,0,9.9,1.735,13.061,5.2l-2.4,2.4a14.16,14.16,0,0,0-10.562-4.234c-8.62,0-15.1,6.326-15.1,14.8s6.481,14.793,15.1,14.793a14.01,14.01,0,0,0,10.562-4.283l2.4,2.4c-3.166,3.47-7.859,5.255-13.114,5.255C746.906,612.89,738.948,605.186,738.948,594.729Z" fill="#fff"/><path d="M808.63,576.87v35.716h-3.113L782.558,583.6v28.981h-3.775V576.87h3.111l23.011,28.98V576.87Z" fill="#fff"/><path d="M817.086,594.729c0-10.41,7.958-18.163,18.775-18.163,10.712,0,18.722,7.7,18.722,18.163s-8.01,18.161-18.722,18.161C825.044,612.89,817.086,605.136,817.086,594.729Zm33.723,0c0-8.52-6.378-14.8-14.948-14.8-8.622,0-15.053,6.276-15.053,14.8s6.431,14.793,15.053,14.793C844.431,609.522,850.809,603.249,850.809,594.729Z" fill="#fff"/><path d="M863.04,576.87h3.777v32.45h20v3.266H863.04Z" fill="#fff"/><path d="M889.2,594.729c0-10.41,7.958-18.163,18.775-18.163,10.714,0,18.725,7.7,18.725,18.163s-8.011,18.161-18.725,18.161C897.161,612.89,889.2,605.136,889.2,594.729Zm33.723,0c0-8.52-6.375-14.8-14.948-14.8-8.622,0-15.05,6.276-15.05,14.8s6.428,14.793,15.05,14.793C916.551,609.522,922.926,603.249,922.926,594.729Z" fill="#fff"/><path d="M960.31,594.729h3.622v13.62a19.7,19.7,0,0,1-13.113,4.541c-10.867,0-18.825-7.7-18.825-18.161s7.958-18.163,18.877-18.163c5.407,0,10.1,1.735,13.266,5.152l-2.347,2.4a14.561,14.561,0,0,0-10.767-4.184c-8.824,0-15.3,6.276-15.3,14.8,0,8.468,6.481,14.793,15.256,14.793a15.461,15.461,0,0,0,9.336-2.753Z" fill="#fff"/><path d="M980.145,567.636h4.845l-8.263,6.329h-3.572Zm-5.562,9.234h3.777v35.716h-3.777Z" fill="#fff"/><path d="M1012.382,603.044h-19.9l-4.286,9.542h-3.93L1000.6,576.87h3.724l16.326,35.716h-3.979Zm-1.378-3.06-8.57-19.184-8.573,19.184Z" fill="#fff"/><path d="M1077.008,576.87v35.716h-3.622V584.015l-14.032,24.03h-1.785l-14.029-23.878v28.419h-3.623V576.87h3.111l15.509,26.482L1073.9,576.87Z" fill="#fff"/><path d="M1113.88,609.32v3.266h-25.256V576.87h24.49v3.265H1092.4v12.7h18.467v3.216H1092.4V609.32Zm-12.7-35.355H1097.6l6.99-6.329h4.848Z" fill="#fff"/><path d="M1122.746,576.87h14.541c11.428,0,19.132,7.347,19.132,17.859s-7.7,17.857-19.132,17.857h-14.541Zm14.336,32.45c9.489,0,15.613-6.021,15.613-14.591s-6.124-14.594-15.613-14.594h-10.559V609.32Z" fill="#fff"/><path d="M1164.875,576.87h3.775v35.716h-3.775Z" fill="#fff"/><path d="M1177.115,594.729c0-10.459,7.958-18.163,18.722-18.163,5.2,0,9.9,1.735,13.061,5.2l-2.4,2.4a14.159,14.159,0,0,0-10.562-4.234c-8.622,0-15.1,6.326-15.1,14.8s6.481,14.793,15.1,14.793a14.009,14.009,0,0,0,10.562-4.283l2.4,2.4c-3.163,3.47-7.856,5.255-13.111,5.255C1185.073,612.89,1177.115,605.186,1177.115,594.729Z" fill="#fff"/><path d="M1238.429,603.044h-19.9l-4.286,9.542h-3.927l16.326-35.716h3.725l16.326,35.716h-3.982Zm-1.378-3.06-8.573-19.184-8.57,19.184Z" fill="#fff"/></g></svg>