<svg xmlns="http://www.w3.org/2000/svg" width="225.772" height="71.802" viewBox="0 0 225.772 71.802"><g transform="translate(-172.895 -535.184)"><path d="M172.9,601.46a5.456,5.456,0,0,1,5.7-5.526,5.262,5.262,0,0,1,3.974,1.584l-.73.729a4.307,4.307,0,0,0-3.213-1.288,4.5,4.5,0,1,0,0,9,4.262,4.262,0,0,0,3.213-1.3l.73.73a5.287,5.287,0,0,1-3.99,1.6A5.452,5.452,0,0,1,172.9,601.46Z" fill="#fff"/><path d="M192.7,605.9v.993h-7.683V596.027h7.45v.994h-6.3v3.865h5.619v.978h-5.619V605.9Z" fill="#fff"/><path d="M202.821,606.893l-2.484-3.492a7.744,7.744,0,0,1-.869.046h-2.919v3.446H195.4V596.027h4.067c2.763,0,4.439,1.4,4.439,3.726a3.369,3.369,0,0,1-2.483,3.415l2.654,3.725Zm-.062-7.14c0-1.739-1.149-2.732-3.322-2.732h-2.888v5.448h2.888C201.61,602.469,202.759,601.46,202.759,599.753Z" fill="#fff"/><path d="M208.579,597.021H204.76v-.994h8.786v.994h-3.818v9.872h-1.149Z" fill="#fff"/><path d="M215.377,596.027h1.148v10.866h-1.148Z" fill="#fff"/><path d="M221.213,597.021v4.269h5.619v.993h-5.619v4.61h-1.149V596.027h7.451v.994Z" fill="#fff"/><path d="M229.889,596.027h1.148v10.866h-1.148Z" fill="#fff"/><path d="M233.613,601.46a5.456,5.456,0,0,1,5.7-5.526,5.259,5.259,0,0,1,3.974,1.584l-.729.729a4.308,4.308,0,0,0-3.213-1.288,4.5,4.5,0,1,0,0,9,4.263,4.263,0,0,0,3.213-1.3l.729.73a5.283,5.283,0,0,1-3.989,1.6A5.452,5.452,0,0,1,233.613,601.46Z" fill="#fff"/><path d="M252.271,603.991h-6.054l-1.3,2.9h-1.195l4.967-10.866h1.133l4.967,10.866h-1.21Zm-.419-.932-2.608-5.836-2.608,5.836Z" fill="#fff"/><path d="M255.468,601.46a5.455,5.455,0,0,1,5.7-5.526,5.259,5.259,0,0,1,3.974,1.584l-.729.729a4.307,4.307,0,0,0-3.213-1.288,4.5,4.5,0,1,0,0,9,4.262,4.262,0,0,0,3.213-1.3l.729.73a5.283,5.283,0,0,1-3.989,1.6A5.452,5.452,0,0,1,255.468,601.46Z" fill="#fff"/><path d="M267.59,596.027h1.149v10.866H267.59Z" fill="#fff"/><path d="M271.315,601.46a5.707,5.707,0,1,1,5.712,5.526A5.468,5.468,0,0,1,271.315,601.46Zm10.26,0a4.564,4.564,0,1,0-4.548,4.5A4.4,4.4,0,0,0,281.575,601.46Z" fill="#fff"/><path d="M294.38,596.027v10.866h-.946l-6.986-8.817v8.817H285.3V596.027h.946l7,8.817v-8.817Z" fill="#fff"/><path d="M305.6,605.9v.993h-7.684V596.027h7.451v.994h-6.3v3.865h5.619v.978h-5.619V605.9Z" fill="#fff"/><path d="M307.262,605.574l.45-.885a5.337,5.337,0,0,0,3.585,1.319c2.034,0,2.919-.854,2.919-1.924,0-2.981-6.69-1.149-6.69-5.169,0-1.6,1.241-2.981,4-2.981a6.136,6.136,0,0,1,3.369.962l-.388.917a5.592,5.592,0,0,0-2.981-.9c-1.986,0-2.871.885-2.871,1.971,0,2.981,6.69,1.18,6.69,5.138,0,1.6-1.273,2.965-4.052,2.965A5.892,5.892,0,0,1,307.262,605.574Z" fill="#fff"/><path d="M324.025,597.021h-3.819v-.994h8.786v.994h-3.818v9.872h-1.149Z" fill="#fff"/><path d="M338.507,605.9v.993h-7.684V596.027h7.451v.994h-6.3v3.865h5.62v.978h-5.62V605.9Zm-3.866-10.757h-1.086l2.127-1.925h1.474Z" fill="#fff"/><path d="M340.182,601.46a5.456,5.456,0,0,1,5.7-5.526,5.262,5.262,0,0,1,3.974,1.584l-.73.729a4.307,4.307,0,0,0-3.213-1.288,4.5,4.5,0,1,0,0,9,4.262,4.262,0,0,0,3.213-1.3l.73.73a5.287,5.287,0,0,1-3.99,1.6A5.452,5.452,0,0,1,340.182,601.46Z" fill="#fff"/><path d="M361.385,596.027v10.866h-.947l-6.985-8.817v8.817H352.3V596.027h.947l7,8.817v-8.817Z" fill="#fff"/><path d="M364.923,596.027h1.148v10.866h-1.148Z" fill="#fff"/><path d="M368.648,601.46a5.455,5.455,0,0,1,5.7-5.526,5.259,5.259,0,0,1,3.974,1.584l-.729.729a4.307,4.307,0,0,0-3.213-1.288,4.5,4.5,0,1,0,0,9,4.262,4.262,0,0,0,3.213-1.3l.729.73a5.283,5.283,0,0,1-3.989,1.6A5.452,5.452,0,0,1,368.648,601.46Z" fill="#fff"/><path d="M387.3,603.991h-6.054l-1.3,2.9h-1.195l4.967-10.866h1.133l4.968,10.866h-1.211Zm-.419-.932-2.608-5.836-2.608,5.836Z" fill="#fff"/><path d="M390.579,605.574l.451-.885a5.337,5.337,0,0,0,3.585,1.319c2.034,0,2.919-.854,2.919-1.924,0-2.981-6.691-1.149-6.691-5.169,0-1.6,1.242-2.981,4.005-2.981a6.133,6.133,0,0,1,3.368.962l-.388.917a5.586,5.586,0,0,0-2.98-.9c-1.987,0-2.872.885-2.872,1.971,0,2.981,6.691,1.18,6.691,5.138,0,1.6-1.273,2.965-4.052,2.965A5.894,5.894,0,0,1,390.579,605.574Z" fill="#fff"/><path d="M173.337,535.9h4.906v46.39h-4.906Z" fill="#fff"/><path d="M231.258,535.9v46.39h-4.041l-29.824-37.643v37.643h-4.9V535.9h4.043l29.888,37.642V535.9Z" fill="#fff"/><path d="M289.932,535.9h10.733v46.39H289.932Z" fill="#fff"/><path d="M322.938,544.644H308.093V535.9h40.426v8.747H333.674v37.643H322.938Z" fill="#fff"/><path d="M354.758,561.875V535.9h10.736v25.58c0,8.815,3.845,12.459,10.339,12.459,6.562,0,10.339-3.644,10.339-12.459V535.9h10.6v25.978c0,13.652-7.817,21.207-21.006,21.207S354.758,575.527,354.758,561.875Z" fill="#fff"/><path d="M267.018,535.332c-1.1-.1-2.2-.148-3.294-.148-13.165,0-19.517,6.55-19.517,14.422,0,17.2,26.926,11.247,26.926,19.914,0,2.845-2.58,4.962-8.931,4.962a27.239,27.239,0,0,1-15.282-4.83l-3.639,8.071c4.1,3.176,11.512,5.359,18.855,5.359,13.231,0,19.648-6.615,19.648-14.356,0-17-26.925-11.115-26.925-19.649,0-2.91,2.447-5.292,8.8-5.292.15,0,.3.013.454.016a5.275,5.275,0,0,1,2.906-8.469Z" fill="#fff"/><circle cx="5.293" cy="5.293" r="5.293" transform="translate(268.222 535.266)" fill="#fff"/></g></svg>