<svg xmlns="http://www.w3.org/2000/svg" width="239.416" height="51.324" viewBox="0 0 239.416 51.324"><g transform="translate(-2651.501 -88.918)"><path d="M2651.5,89.682h5.258V139.39H2651.5Z" fill="#fff"/><path d="M2713.565,89.682V139.39h-4.33l-31.957-40.335V139.39h-5.255V89.682h4.332l32.026,40.334V89.682Z" fill="#fff"/><path d="M2776.435,89.682h11.5V139.39h-11.5Z" fill="#fff"/><path d="M2811.8,99.055H2795.9V89.682h43.316v9.373H2823.3V139.39h-11.5Z" fill="#fff"/><path d="M2845.9,117.518V89.682h11.5v27.41c0,9.445,4.12,13.35,11.079,13.35,7.032,0,11.079-3.9,11.079-13.35V89.682h11.359v27.836c0,14.629-8.377,22.724-22.509,22.724S2845.9,132.147,2845.9,117.518Z" fill="#fff"/><path d="M2751.883,89.077c-1.174-.106-2.355-.159-3.531-.159-14.106,0-20.912,7.019-20.912,15.454,0,18.431,28.852,12.051,28.852,21.338,0,3.048-2.765,5.317-9.57,5.317a29.183,29.183,0,0,1-16.375-5.176l-3.9,8.649c4.4,3.4,12.335,5.742,20.2,5.742,14.177,0,21.053-7.088,21.053-15.382,0-18.219-28.851-11.91-28.851-21.054,0-3.119,2.623-5.671,9.428-5.671.161,0,.326.014.487.017a5.652,5.652,0,0,1,3.115-9.075Z" fill="#fff"/><circle cx="5.671" cy="5.671" r="5.671" transform="translate(2753.172 89.006)" fill="#fff"/></g></svg>