<svg xmlns="http://www.w3.org/2000/svg" xmlns:xlink="http://www.w3.org/1999/xlink" width="125.995" height="112.287" viewBox="0 0 125.995 112.287"><defs><clipPath id="a"><rect width="125.995" height="112.287" fill="none"/></clipPath></defs><g clip-path="url(#a)"><g transform="translate(-503.052 -1852.807)"><g transform="translate(0 -68.161)"><path d="M571.05,2009.542v.664c0,3.6-1.176,4.708-4.707,4.708h-.588c-3.527,0-4.707-1.1-4.707-4.708v-.664c0-3.531,1.18-4.707,4.707-4.707h.588C569.874,2004.835,571.05,2006.011,571.05,2009.542Zm-.511-47.291-1.032,34.938c-.072,1.691-.588,2.2-2.28,2.2h-2.28c-1.691,0-2.207-.512-2.279-2.2l-.956-34.938c-.076-1.692.588-2.28,2.28-2.28h4.267C569.951,1959.971,570.61,1960.559,570.539,1962.251Z" fill="#4fb9c7"/></g><path d="M617.058,2033.256H515.041a11.969,11.969,0,0,1-10.367-17.953l51.009-88.351a11.849,11.849,0,0,1,10.367-5.983h0a11.843,11.843,0,0,1,10.363,5.984l51.009,88.35a11.968,11.968,0,0,1-10.365,17.953Zm-55.73-103.045-51.008,88.35a5.45,5.45,0,0,0,4.721,8.176H617.058a5.45,5.45,0,0,0,4.72-8.176l-51.009-88.35a5.394,5.394,0,0,0-4.719-2.724h0a5.4,5.4,0,0,0-4.722,2.726Z" transform="translate(0 -68.161)" fill="#4fb9c7"/></g></g></svg>