<svg xmlns="http://www.w3.org/2000/svg" width="53.492" height="53.43" viewBox="0 0 53.492 53.43"><g transform="translate(-1137.868 -7858.059)"><path d="M1164.86,7911.387a26.6,26.6,0,0,1-13.008-3.237c-.453-.248-.845,0-1.238.1-4.136,1.049-8.266,2.122-12.4,3.187-.1.027-.225.1-.312,0s.015-.206.044-.307q1.778-6.319,3.564-12.637a.654.654,0,0,0-.09-.546,25.714,25.714,0,0,1-2-4.36,26.136,26.136,0,0,1-1.151-4.488,26.654,26.654,0,0,1-.331-3.3,28.641,28.641,0,0,1,.3-5.166,26.3,26.3,0,0,1,5.072-11.96,26.637,26.637,0,0,1,10.542-8.349,26.157,26.157,0,0,1,6.9-1.98,26.684,26.684,0,0,1,6.663-.145,26.312,26.312,0,0,1,11.657,4.091,26.768,26.768,0,0,1,7.191,6.792,26.07,26.07,0,0,1,3.977,8.009,26.608,26.608,0,0,1-10.07,29.309,26.652,26.652,0,0,1-15.32,4.984Zm.124-4.523a22.274,22.274,0,0,0,18.127-9.886,21.891,21.891,0,0,0,3.391-8.516,22.113,22.113,0,0,0-.115-8.163,21.613,21.613,0,0,0-3.046-7.473A22.138,22.138,0,0,0,1166,7862.633a22.213,22.213,0,0,0-8.453,1.117,22.153,22.153,0,0,0-13.794,28.462,23.877,23.877,0,0,0,2.521,4.975c.109.167.242.314.171.562-.659,2.3-1.3,4.6-1.953,6.894-.039.142-.151.3-.025.426.106.1.268.017.4-.016,2.019-.519,4.044-1.02,6.052-1.579a2.227,2.227,0,0,1,2.374.277.636.636,0,0,0,.107.064A22.246,22.246,0,0,0,1164.984,7906.864Z" fill="#fbfdfc"/><path d="M1155.942,7872.274c.333,0,.638-.009.942,0a1.178,1.178,0,0,1,1.118.775q1.167,2.744,2.342,5.483a1.158,1.158,0,0,1-.189,1.312q-.942,1.077-1.874,2.163a.867.867,0,0,0-.115,1.235,17.721,17.721,0,0,0,9,7.8c.128.052.254.109.383.157a.781.781,0,0,0,1.085-.305c.665-.849,1.322-1.7,1.98-2.558a1.036,1.036,0,0,1,1.535-.4q2.728,1.252,5.452,2.516c.523.242.716.514.64,1.034a6.985,6.985,0,0,1-1.573,3.894,6.493,6.493,0,0,1-3.4,1.931,9.163,9.163,0,0,1-5.087-.512,27.533,27.533,0,0,1-12.528-8.708,22.173,22.173,0,0,1-3.535-5.384,9.744,9.744,0,0,1-.8-6.024,7.422,7.422,0,0,1,1.98-3.4A2.6,2.6,0,0,1,1155.942,7872.274Z" fill="#fbfdfc"/></g></svg>